#N canvas 2318 143 958 861 12;
#X obj 524 58 hsl 128 15 0 1 0 0 empty empty Noise_Attack -2 -8 0 10
-262144 -1 -1 6400 1;
#X obj 526 184 hsl 128 15 0 1 0 0 empty empty Noise_Decay -2 -8 0 10
-262144 -1 -1 8000 1;
#X obj 244 58 hsl 128 15 0 1 0 0 empty empty Noise_Sweep_Freq -2 -8
0 10 -262144 -1 -1 4500 1;
#X obj 239 436 hsl 128 15 0 1 0 0 empty empty Osc_Attack -2 -8 0 10
-262144 -1 -1 0 1;
#X obj 239 536 hsl 128 15 0 1 0 0 empty empty Osc_Decay -2 -8 0 10
-262144 -1 -1 0 1;
#X obj 237 724 hsl 128 15 0 1 0 0 empty empty Osc_Amount -2 -8 0 10
-262144 -1 -1 0 1;
#X obj 238 634 hsl 128 15 0 1 0 0 empty empty Osc_Freq -2 -8 0 10 -262144
-1 -1 0 1;
#X obj 242 183 hsl 128 15 0 1 0 0 empty empty Noise_Amount -2 -8 0
10 -262144 -1 -1 12700 1;
#X obj 526 340 hsl 128 15 0 1 0 0 empty empty Bitcrush_Amount -2 -8
0 10 -262144 -1 -1 0 1;
#X obj 526 440 hsl 128 15 0 1 0 0 empty empty Flanger_Feedback -2 -8
0 10 -262144 -1 -1 0 1;
#X obj 526 635 hsl 128 15 0 1 0 0 empty empty Flanger_Depth -2 -8 0
10 -262144 -1 -1 0 1;
#X obj 525 540 hsl 128 15 0 1 0 0 empty empty Flanger_Speed -2 -8 0
10 -262144 -1 -1 0 1;
#X obj 523 302 r bitcrush @hv_param 0 1 0.92;
#X obj 48 55 t b;
#X obj 44 395 dac~;
#X obj 240 20 r noise_sweep @hv_param 0 1 0.36;
#X obj 239 147 r noise_amount @hv_param 0 1 0.54;
#X obj 236 400 r osc_attack @hv_param 0 1 0;
#X obj 236 499 r osc_decay @hv_param 0 1 0.66;
#X obj 235 596 r osc_freq @hv_param 0 1 0.3;
#X obj 234 687 r osc_amount @hv_param 0 1 0.8;
#X obj 523 598 r flanger_depth @hv_param 0 1 1;
#X obj 522 503 r flanger_speed @hv_param 0 1 0.61;
#X obj 523 401 r flanger_fb @hv_param 0 1 0.94;
#X obj 523 146 r noise_decay @hv_param 0 1 0.56;
#X obj 522 19 r noise_attack @hv_param 0 1 0.17;
#X obj 48 29 r trigger @hv_event;
#X msg 241 78 Noise-Sweep-Freq \$1;
#X msg 239 204 Noise-Amount \$1;
#X msg 523 206 Noise-Decay \$1;
#X msg 236 457 Osc-Attack \$1;
#X msg 236 556 Osc-Decay \$1;
#X msg 235 653 Osc-Freq \$1;
#X msg 234 745 Osc-Amount \$1;
#X msg 523 360 Bitcrush-Amount \$1;
#X msg 523 461 Flanger-Feedback \$1;
#X msg 522 562 Flanger-Speed \$1;
#X msg 523 656 Flanger-Depth \$1;
#X obj 47 360 examples/chip;
#X obj 15 28 bng 15 250 50 0 empty empty empty 17 7 0 10 -262144 -1
-1;
#X msg 521 82 Noise-Attack \$1;
#X connect 0 0 40 0;
#X connect 1 0 29 0;
#X connect 2 0 27 0;
#X connect 3 0 30 0;
#X connect 4 0 31 0;
#X connect 5 0 33 0;
#X connect 6 0 32 0;
#X connect 7 0 28 0;
#X connect 8 0 34 0;
#X connect 9 0 35 0;
#X connect 10 0 37 0;
#X connect 11 0 36 0;
#X connect 12 0 8 0;
#X connect 13 0 38 0;
#X connect 15 0 2 0;
#X connect 16 0 7 0;
#X connect 17 0 3 0;
#X connect 18 0 4 0;
#X connect 19 0 6 0;
#X connect 20 0 5 0;
#X connect 21 0 10 0;
#X connect 22 0 11 0;
#X connect 23 0 9 0;
#X connect 24 0 1 0;
#X connect 25 0 0 0;
#X connect 26 0 13 0;
#X connect 27 0 38 1;
#X connect 28 0 38 1;
#X connect 29 0 38 1;
#X connect 30 0 38 1;
#X connect 31 0 38 1;
#X connect 32 0 38 1;
#X connect 33 0 38 1;
#X connect 34 0 38 1;
#X connect 35 0 38 1;
#X connect 36 0 38 1;
#X connect 37 0 38 1;
#X connect 38 0 14 0;
#X connect 38 0 14 1;
#X connect 39 0 13 0;
#X connect 40 0 38 1;
