#N canvas 827 239 734 565 12;
#X obj 122 58 adc~;
#X obj 122 146 dac~;
#X obj 43 210 env~;
#X obj 228 160 env~;
#X obj 69 258 s L @hv_param 0 100 0;
#X obj 228 248 s R @hv_param 0 100 0;
#X connect 0 0 1 0;
#X connect 0 0 2 0;
#X connect 0 1 1 1;
#X connect 0 1 3 0;
#X connect 2 0 4 0;
#X connect 3 0 5 0;
