#N canvas 827 239 734 565 12;
#X obj 122 58 adc~;
#X obj 122 146 dac~;
#X obj 107 104 *~;
#X obj 170 43 sig~;
#X obj 170 112 *~;
#X obj 192 2 r MultLeft @hv_param;
#X obj 228 82 sig~;
#X obj 228 52 r MultRight @hv_param;
#X connect 0 0 2 0;
#X connect 0 1 4 0;
#X connect 2 0 1 0;
#X connect 3 0 2 1;
#X connect 4 0 1 1;
#X connect 5 0 3 0;
#X connect 6 0 4 1;
#X connect 7 0 6 0;
